<svg viewBox="721 621.7943 548.1861 182.4018" width="5000" height="1663.6850149976442" xmlns="http://www.w3.org/2000/svg" xmlns:xlink="http://www.w3.org/1999/xlink" preserveAspectRatio="none"><defs></defs><style>.aD6z1nYkhcolor {fill:#E7E7E7;fill-opacity:1;}.aD6z1nYkhstrokeColor-str {stroke:#FFFFFF;stroke-opacity:1;}.aLgOaV3zRcolors-0 {fill:#7A63FF;fill-opacity:1;}.aLgOaV3zRcolors-1 {fill:#74E0EF;fill-opacity:1;}.aLgOaV3zRcolors-2 {fill:#FFFFFF;fill-opacity:1;}.aLgOaV3zRcolors-3 {fill:#969696;fill-opacity:1;}.aLgOaV3zRcolors-4 {fill:#C1F7FF;fill-opacity:1;}.aLgOaV3zRcolors-5 {fill:#EF75FD;fill-opacity:1;}.aLgOaV3zRcolors-6 {fill:#555555;fill-opacity:1;}.aLgOaV3zRcolors-7 {fill:#B4B4B4;fill-opacity:1;}</style><g opacity="1" transform="rotate(0 895 671.4065)">
<svg width="374.1861" height="86.0728" x="895" y="671.4065" version="1.1" preserveAspectRatio="none" viewBox="1.6406 -31.9141 141.7969 32.6172">
  <g transform="matrix(1 0 0 1 0 0)" class="aD6z1nYkhcolor"><path id="id-D6z1nYkh7" d="M1.64-15.47L1.64-15.47Q1.64-22.89 5.47-27.25Q9.30-31.60 15.35-31.60L15.35-31.60Q19.26-31.60 22.05-29.45Q24.84-27.30 26.21-24.14L26.21-24.14L21.80-22.70Q19.30-27.19 15.27-27.19L15.27-27.19Q11.45-27.19 9.20-24.00Q6.95-20.82 6.95-15.47L6.95-15.47Q6.95-10.04 9.22-6.88Q11.48-3.71 15.27-3.71L15.27-3.71Q17.73-3.71 19.63-5.20Q21.52-6.68 22.38-8.83L22.38-8.83L26.99-7.38Q26.41-5.98 25.49-4.67Q24.57-3.36 23.18-2.09Q21.80-0.82 19.77-0.06Q17.73 0.70 15.35 0.70L15.35 0.70Q9.41 0.70 5.53-3.61Q1.64-7.93 1.64-15.47Z M34.22-6.33L34.22-6.33Q34.22-5.08 35.21-4.24Q36.21-3.40 37.85-3.40L37.85-3.40Q40.20-3.40 41.86-4.96Q43.52-6.52 43.52-9.06L43.52-9.06L43.52-11.13Q41.72-10.70 39.18-10.31L39.18-10.31Q34.22-9.53 34.22-6.33ZM29.22-5.90L29.22-5.90Q29.22-12.27 38.67-13.67L38.67-13.67Q42.11-14.18 43.52-14.61L43.52-14.61L43.52-15.82Q43.52-17.46 42.34-18.40Q41.17-19.34 39.22-19.34L39.22-19.34Q35.51-19.34 32.81-16.29L32.81-16.29L29.80-18.87Q31.56-20.94 34.00-22.09Q36.45-23.24 39.14-23.24L39.14-23.24Q44.18-23.24 46.33-20.80Q48.48-18.36 48.48-13.98L48.48-13.98L48.48 0L43.67 0L43.67-2.81Q42.97-1.37 41.23-0.33Q39.49 0.70 37.15 0.70L37.15 0.70Q33.44 0.70 31.33-1.13Q29.22-2.97 29.22-5.90Z M51.88-4.69L51.88-4.69L55.43-6.76Q57.77-3.32 61.52-3.32L61.52-3.32Q63.36-3.32 64.43-4.04Q65.51-4.77 65.51-5.98L65.51-5.98Q65.51-6.95 64.63-7.70Q63.75-8.44 62.77-8.81Q61.80-9.18 59.84-9.80L59.84-9.80Q59.49-9.92 59.34-9.96L59.34-9.96Q57.93-10.43 56.97-10.88Q56.02-11.33 54.96-12.09Q53.91-12.85 53.36-14.00Q52.81-15.16 52.81-16.68L52.81-16.68Q52.81-19.65 55.31-21.45Q57.81-23.24 61.52-23.24L61.52-23.24Q64.30-23.24 66.76-21.78Q69.22-20.31 70.43-18.05L70.43-18.05L67.15-16.05Q64.84-19.22 61.56-19.22L61.56-19.22Q59.77-19.22 58.81-18.50Q57.85-17.77 57.85-16.60L57.85-16.60Q57.85-15.63 58.69-14.86Q59.53-14.10 60.43-13.75Q61.33-13.40 62.97-12.85L62.97-12.85Q63.40-12.73 63.59-12.66L63.59-12.66Q70.55-10.43 70.55-5.94L70.55-5.94Q70.55-3.16 68.22-1.23Q65.90 0.70 61.64 0.70L61.64 0.70Q58.36 0.70 55.80-0.74Q53.24-2.19 51.88-4.69Z M75.90-18.32L72.42-18.32L72.42-22.54L75.90-22.54L75.90-29.22L80.82-29.22L80.82-22.54L85.98-22.54L85.98-18.32L80.82-18.32L80.82-7.23Q80.82-5.63 81.46-4.92Q82.11-4.22 83.44-4.22L83.44-4.22L86.02-4.22L86.02 0L82.81 0Q75.90 0 75.90-6.88L75.90-6.88L75.90-18.32Z M95.23 0L90.31 0L90.31-31.91L95.23-31.91L95.23 0Z M99.73-11.37L99.73-11.37Q99.73-16.80 102.71-20.02Q105.70-23.24 110.23-23.24L110.23-23.24Q114.69-23.24 117.58-20Q120.47-16.76 120.47-11.56L120.47-11.56Q120.47-10.55 120.35-9.57L120.35-9.57L104.73-9.57Q104.73-6.99 106.27-5.14Q107.81-3.28 110.51-3.28L110.51-3.28Q112.38-3.28 113.81-4.20Q115.23-5.12 115.98-6.56L115.98-6.56L120.12-5.16Q119.02-2.66 116.56-0.98Q114.10 0.70 110.43 0.70L110.43 0.70Q105.70 0.70 102.71-2.58Q99.73-5.86 99.73-11.37ZM104.80-13.05L104.80-13.05L115.43-13.05Q115.43-15.63 114.06-17.44Q112.70-19.26 110.23-19.26L110.23-19.26Q107.77-19.26 106.31-17.40Q104.84-15.55 104.80-13.05Z M123.20-11.29L123.20-11.29Q123.20-16.84 125.92-20.04Q128.63-23.24 132.81-23.24L132.81-23.24Q134.80-23.24 136.27-22.29Q137.73-21.33 138.52-20.04L138.52-20.04L138.52-31.91L143.44-31.91L143.44 0L138.67 0L138.67-2.93Q137.97-1.45 136.35-0.37Q134.73 0.70 132.77 0.70L132.77 0.70Q131.02 0.70 129.38 0.04Q127.73-0.63 126.31-1.99Q124.88-3.36 124.04-5.76Q123.20-8.16 123.20-11.29ZM128.28-11.29L128.28-11.29Q128.28-7.62 129.71-5.57Q131.13-3.52 133.48-3.52L133.48-3.52Q135.74-3.52 137.17-5.61Q138.59-7.70 138.59-11.29L138.59-11.29Q138.59-14.77 137.21-16.89Q135.82-19.02 133.48-19.02L133.48-19.02Q131.02-19.02 129.65-16.91Q128.28-14.80 128.28-11.29Z"/></g>
</svg>
</g><g opacity="1" transform="rotate(0 721 621.7943)">
<svg width="152" height="182.4018" x="721" y="621.7943" version="1.1" preserveAspectRatio="none" viewBox="16.66699981689453 10 66.66600036621094 80">
  <g transform="matrix(1 0 0 -1 0 100)" class="aLgOaV3zRcolors-0"><path d="M16.667,43.33C16.667,69.104,37.559,90,63.333,90v-6.667c-22.093,0-40-17.91-40-40.003H16.667z"></path><path d="M63.333,16.667c-14.729,0-26.666,11.94-26.666,26.664C36.667,58.06,48.604,70,63.333,70v6.667  C44.922,76.667,30,61.741,30,43.33C30,24.922,44.922,10,63.333,10V16.667z"></path><path d="M76.667,43.333C76.667,35.97,70.7,30,63.333,30C55.967,30,50,35.97,50,43.333s5.967,13.334,13.333,13.334v6.666  c-11.048,0-20-8.955-20-20.003c0-11.045,8.952-19.997,20-19.997c11.049,0,20,8.952,20,19.997L76.667,43.333z"></path></g>
</svg>
</g></svg>