<?xml version="1.0" standalone="no"?>
<!DOCTYPE svg PUBLIC "-//W3C//DTD SVG 20010904//EN"
 "http://www.w3.org/TR/2001/REC-SVG-20010904/DTD/svg10.dtd">
<svg version="1.0" xmlns="http://www.w3.org/2000/svg"
 width="600.000000pt" height="600.000000pt" viewBox="0 0 600.000000 600.000000"
 preserveAspectRatio="xMidYMid meet">
<metadata>
Created by potrace 1.14, written by Peter Selinger 2001-2017
</metadata>
<g transform="translate(0.000000,600.000000) scale(0.100000,-0.100000)"
fill="#000000" stroke="none">
<path d="M3425 5453 c-312 -27 -669 -119 -938 -242 -270 -124 -571 -333 -777
-540 -499 -502 -777 -1127 -816 -1833 l-7 -128 195 0 195 0 7 108 c31 499 188
933 475 1317 90 119 324 357 436 442 397 300 823 457 1328 489 l107 7 0 193 0
194 -82 -2 c-46 -1 -101 -3 -123 -5z"/>
<path d="M3340 4654 c-848 -129 -1510 -793 -1647 -1654 -22 -143 -22 -439 1
-575 62 -367 199 -680 419 -951 78 -96 248 -261 341 -330 311 -233 732 -384
1067 -384 l109 0 0 189 0 189 -67 6 c-219 20 -338 44 -487 102 -216 83 -393
199 -554 362 -160 162 -256 307 -341 518 -82 203 -111 356 -111 589 0 284 52
491 185 743 77 146 155 249 277 368 145 142 241 211 415 298 183 91 440 156
618 156 l65 0 0 195 0 195 -97 -1 c-54 -1 -141 -7 -193 -15z"/>
<path d="M3460 3879 c-371 -59 -682 -278 -864 -610 -152 -277 -180 -663 -69
-957 150 -401 489 -685 898 -756 178 -31 414 -14 574 41 365 125 648 423 755
793 23 79 46 216 46 273 l0 47 -195 0 -195 0 0 -32 c0 -71 -40 -221 -79 -303
-80 -164 -204 -288 -367 -367 -108 -52 -169 -67 -294 -75 -237 -13 -457 76
-616 250 -137 150 -203 322 -204 525 0 222 81 418 234 565 143 137 272 195
499 222 l47 6 0 195 0 194 -57 -1 c-32 -1 -83 -5 -113 -10z"/>
</g>
</svg>
